<svg width="24" height="24" viewBox="0 0 24 24" fill="none" xmlns="http://www.w3.org/2000/svg">
<path d="M13.9257 1.33309C13.5573 0.921559 12.9251 0.886539 12.5136 1.25486C12.1021 1.62319 12.0671 2.25539 12.4354 2.66691L13.9257 1.33309ZM12.4354 21.3331C12.0671 21.7446 12.1021 22.3768 12.5136 22.7451C12.9251 23.1135 13.5573 23.0784 13.9257 22.6669L12.4354 21.3331ZM4.95998 14.6905C4.58836 15.099 4.61829 15.7315 5.02684 16.1031C5.43539 16.4748 6.06784 16.4448 6.43947 16.0363L4.95998 14.6905ZM8.65971 18.0539C8.28808 18.4624 8.31801 19.0949 8.72656 19.4665C9.13511 19.8381 9.76757 19.8082 10.1392 19.3997L8.65971 18.0539ZM6.43947 7.96372C6.06784 7.55517 5.43539 7.52524 5.02684 7.89687C4.61829 8.2685 4.58836 8.90095 4.95998 9.3095L6.43947 7.96372ZM10.1392 4.60034C9.76757 4.19179 9.13511 4.16185 8.72656 4.53348C8.31801 4.90511 8.28808 5.53756 8.65971 5.94611L10.1392 4.60034ZM12.4354 2.66691C14.6528 5.14444 16 8.41371 16 12L18 12C18 7.90275 16.4586 4.16312 13.9257 1.33309L12.4354 2.66691ZM16 12C16 15.5863 14.6528 18.8556 12.4354 21.3331L13.9257 22.6669C16.4586 19.8369 18 16.0973 18 12L16 12ZM6 12C6 13.0367 5.60692 13.9793 4.95998 14.6905L6.43947 16.0363C7.40822 14.9713 8 13.5536 8 12L6 12ZM11 12C11 14.3319 10.1145 16.4546 8.65971 18.0539L10.1392 19.3997C11.9158 17.4466 13 14.8487 13 12L11 12ZM4.95998 9.3095C5.60692 10.0207 6 10.9633 6 12L8 12C8 10.4464 7.40822 9.02872 6.43947 7.96372L4.95998 9.3095ZM8.65971 5.94611C10.1145 7.54544 11 9.66815 11 12L13 12C13 9.15127 11.9158 6.55344 10.1392 4.60034L8.65971 5.94611Z" fill="#111111"/>
</svg>
