<svg width="274" height="273" viewBox="0 0 274 273" fill="none" xmlns="http://www.w3.org/2000/svg">
<path d="M136.779 0L142.494 27.4497L151.047 0.747757L153.862 28.6444L165.159 2.98285L165.042 31.0209L178.96 6.68079L175.913 34.553L192.299 11.801L186.355 39.2021L205.029 18.2875L196.254 44.9172L217.012 26.0692L205.501 51.6357L228.115 35.0607L213.995 59.2839L238.218 45.1637L221.643 67.7782L247.21 56.2673L228.362 77.0254L254.992 68.25L234.077 86.9242L261.478 80.9805L238.726 97.3662L266.598 94.3192L242.258 108.237L270.296 108.12L244.635 119.417L272.531 122.232L245.829 130.785L273.279 136.5L245.829 142.215L272.531 150.768L244.635 153.583L270.296 164.88L242.258 164.763L266.598 178.681L238.726 175.634L261.478 192.02L234.077 186.076L254.992 204.75L228.362 195.975L247.21 216.733L221.643 205.222L238.218 227.836L213.995 213.716L228.115 237.939L205.501 221.364L217.012 246.931L196.254 228.083L205.029 254.712L186.355 233.798L192.299 261.199L175.913 238.447L178.96 266.319L165.042 241.979L165.159 270.017L153.862 244.356L151.047 272.252L142.494 245.55L136.779 273L131.064 245.55L122.511 272.252L119.696 244.356L108.399 270.017L108.516 241.979L94.5982 266.319L97.6453 238.447L81.2595 261.199L87.2033 233.798L68.5291 254.712L77.3045 228.083L56.5464 246.931L68.0573 221.364L45.4427 237.939L59.563 213.716L35.3398 227.836L51.9147 205.222L26.3482 216.733L45.1962 195.975L18.5666 204.75L39.4811 186.076L12.0801 192.02L34.8321 175.634L6.95984 178.681L31.3 164.763L3.2619 164.88L28.9235 153.583L1.02681 150.768L27.7287 142.215L0.279053 136.5L27.7287 130.785L1.02681 122.232L28.9235 119.417L3.2619 108.12L31.3 108.237L6.95984 94.3192L34.8321 97.3662L12.0801 80.9805L39.4811 86.9242L18.5666 68.25L45.1962 77.0254L26.3482 56.2673L51.9147 67.7782L35.3398 45.1637L59.563 59.2839L45.4427 35.0607L68.0573 51.6357L56.5464 26.0692L77.3045 44.9172L68.5291 18.2875L87.2033 39.2021L81.2595 11.801L97.6453 34.553L94.5982 6.68079L108.516 31.0209L108.399 2.98285L119.696 28.6444L122.511 0.747757L131.064 27.4497L136.779 0Z" fill="#8900DA"/>
</svg>
