<svg width="25" height="25" viewBox="0 0 25 25" fill="none" xmlns="http://www.w3.org/2000/svg">
<g id="Icons/Document">
<path id="Icon" d="M9.5 8.5H15.5M9.5 12.5H15.5M9.5 16.5H12.5M8.7 21.5H16.3C17.4201 21.5 17.9802 21.5 18.408 21.282C18.7843 21.0903 19.0903 20.7843 19.282 20.408C19.5 19.9802 19.5 19.4201 19.5 18.3V6.7C19.5 5.5799 19.5 5.01984 19.282 4.59202C19.0903 4.21569 18.7843 3.90973 18.408 3.71799C17.9802 3.5 17.4201 3.5 16.3 3.5H8.7C7.5799 3.5 7.01984 3.5 6.59202 3.71799C6.21569 3.90973 5.90973 4.21569 5.71799 4.59202C5.5 5.01984 5.5 5.57989 5.5 6.7V18.3C5.5 19.4201 5.5 19.9802 5.71799 20.408C5.90973 20.7843 6.21569 21.0903 6.59202 21.282C7.01984 21.5 7.57989 21.5 8.7 21.5Z" stroke="white" stroke-width="2" stroke-linecap="round" stroke-linejoin="round"/>
</g>
</svg>
