<svg width="33" height="32" viewBox="0 0 33 32" fill="none" xmlns="http://www.w3.org/2000/svg">
<g id="Smiley">
<path id="Icon" d="M21.3 20.8C21.3 20.8 19.5 18.4 16.5 18.4C13.5 18.4 11.7 20.8 11.7 20.8M20.1 12.4H20.112M12.9 12.4H12.912M28.5 16C28.5 22.6274 23.1274 28 16.5 28C9.87258 28 4.5 22.6274 4.5 16C4.5 9.37258 9.87258 4 16.5 4C23.1274 4 28.5 9.37258 28.5 16ZM20.7 12.4C20.7 12.7314 20.4314 13 20.1 13C19.7686 13 19.5 12.7314 19.5 12.4C19.5 12.0686 19.7686 11.8 20.1 11.8C20.4314 11.8 20.7 12.0686 20.7 12.4ZM13.5 12.4C13.5 12.7314 13.2314 13 12.9 13C12.5686 13 12.3 12.7314 12.3 12.4C12.3 12.0686 12.5686 11.8 12.9 11.8C13.2314 11.8 13.5 12.0686 13.5 12.4Z" stroke="white" stroke-width="2" stroke-linecap="round" stroke-linejoin="round"/>
</g>
</svg>
