<svg width="49" height="48" viewBox="0 0 49 48" fill="none" xmlns="http://www.w3.org/2000/svg">
<g id="Icons/question">
<path id="Icon" d="M24.499 25.6C26.499 23.6 28.499 22.8091 28.499 20.6C28.499 18.3909 26.7081 16.6 24.499 16.6C22.6351 16.6 21.069 17.8748 20.625 19.6M24.5 31.6H24.52M39.4373 29.0627L42.2373 26.2627C43.0293 25.4707 43.4253 25.0747 43.5737 24.618C43.7042 24.2163 43.7042 23.7837 43.5737 23.382C43.4253 22.9253 43.0293 22.5293 42.2373 21.7373L39.4373 18.9373C39.0914 18.5914 38.9184 18.4184 38.7947 18.2166C38.6851 18.0376 38.6043 17.8425 38.5553 17.6385C38.5 17.4083 38.5 17.1637 38.5 16.6745V13.2C38.5 12.0799 38.5 11.5198 38.282 11.092C38.0903 10.7157 37.7843 10.4097 37.408 10.218C36.9802 10 36.4201 10 35.3 10H31.8255C31.3363 10 31.0917 10 30.8615 9.94474C30.6575 9.89575 30.4624 9.81494 30.2834 9.70528C30.0816 9.5816 29.9086 9.40865 29.5627 9.06274L26.7627 6.26274C25.9707 5.47071 25.5747 5.07469 25.118 4.92632C24.7163 4.7958 24.2837 4.7958 23.882 4.92632C23.4253 5.07469 23.0293 5.47071 22.2373 6.26275L19.4373 9.06274C19.0914 9.40865 18.9184 9.5816 18.7166 9.70528C18.5376 9.81494 18.3425 9.89575 18.1385 9.94474C17.9083 10 17.6637 10 17.1745 10H13.7C12.5799 10 12.0198 10 11.592 10.218C11.2157 10.4097 10.9097 10.7157 10.718 11.092C10.5 11.5198 10.5 12.0799 10.5 13.2V16.6745C10.5 17.1637 10.5 17.4083 10.4447 17.6385C10.3957 17.8425 10.3149 18.0376 10.2053 18.2166C10.0816 18.4184 9.90865 18.5914 9.56274 18.9373L6.76274 21.7373C5.97071 22.5293 5.57469 22.9253 5.42632 23.382C5.2958 23.7837 5.2958 24.2163 5.42632 24.618C5.57469 25.0747 5.97071 25.4707 6.76275 26.2627L9.56274 29.0627C9.90865 29.4086 10.0816 29.5816 10.2053 29.7834C10.3149 29.9624 10.3957 30.1575 10.4447 30.3615C10.5 30.5917 10.5 30.8363 10.5 31.3255V34.8C10.5 35.9201 10.5 36.4802 10.718 36.908C10.9097 37.2843 11.2157 37.5903 11.592 37.782C12.0198 38 12.5799 38 13.7 38H17.1745C17.6637 38 17.9083 38 18.1385 38.0553C18.3425 38.1043 18.5376 38.1851 18.7166 38.2947C18.9184 38.4184 19.0914 38.5914 19.4373 38.9373L22.2373 41.7373C23.0293 42.5293 23.4253 42.9253 23.882 43.0737C24.2837 43.2042 24.7163 43.2042 25.118 43.0737C25.5747 42.9253 25.9707 42.5293 26.7627 41.7373L29.5627 38.9373C29.9086 38.5914 30.0816 38.4184 30.2834 38.2947C30.4624 38.1851 30.6575 38.1043 30.8615 38.0553C31.0917 38 31.3363 38 31.8255 38H35.3C36.4201 38 36.9802 38 37.408 37.782C37.7843 37.5903 38.0903 37.2843 38.282 36.908C38.5 36.4802 38.5 35.9201 38.5 34.8V31.3255C38.5 30.8363 38.5 30.5917 38.5553 30.3615C38.6043 30.1575 38.6851 29.9624 38.7947 29.7834C38.9184 29.5816 39.0914 29.4086 39.4373 29.0627Z" stroke="white" stroke-width="2" stroke-linecap="round"/>
</g>
</svg>
