<svg width="21" height="21" viewBox="0 0 21 21" fill="none" xmlns="http://www.w3.org/2000/svg">
<g id="Icon &#240;&#159;&#145;&#137;">
<path id="Icon" d="M11.333 2.16666L9.66634 3.82954L9.71564 3.87895M9.66634 15.5L11.333 17.0923L11.3083 17.1181M9.71564 3.87895L11.333 5.5M9.71564 3.87895C9.9728 3.84882 10.2344 3.83333 10.4997 3.83333C14.1816 3.83333 17.1663 6.8181 17.1663 10.5C17.1663 12.6053 16.1904 14.4827 14.6663 15.7045M6.33301 5.29552C4.8089 6.51729 3.83301 8.39468 3.83301 10.5C3.83301 14.1819 6.81778 17.1667 10.4997 17.1667C10.7734 17.1667 11.0432 17.1502 11.3083 17.1181M9.66634 18.8334L11.3083 17.1181" stroke="#111111" stroke-width="2" stroke-linecap="round" stroke-linejoin="round"/>
</g>
</svg>
