<svg width="55" height="18" viewBox="0 0 55 18" fill="none" xmlns="http://www.w3.org/2000/svg">
<path d="M50.7805 1.10958C49.4771 1.59844 49.0423 2.20486 49.0423 2.79149C49.0152 4.09511 50.9426 3.39441 50.8991 4.61074C50.8991 5.15896 50.4843 5.76421 49.5558 5.76421C48.5686 5.76421 47.5215 5.00183 47.5215 3.51547C47.5215 1.75558 48.9823 0.796482 50.4843 0.405396L50.7805 1.10958Z" fill="#6E6E6E"/>
<path d="M54.881 1.10958C53.5777 1.59844 53.1428 2.20486 53.1428 2.79149C53.1158 4.09511 55.0432 3.39441 54.9997 4.61074C54.9997 5.15896 54.5849 5.76421 53.6564 5.76421C52.6692 5.76421 51.6221 5.00183 51.6221 3.51547C51.6221 1.75558 53.0829 0.796482 54.5849 0.405396L54.881 1.10958Z" fill="#6E6E6E"/>
<path d="M49.2324 7.07369C48.5542 7.07369 47.9325 6.91306 47.4883 6.65466V17.2745H50.9341V6.67329C50.4934 6.92121 49.894 7.07369 49.2324 7.07369Z" fill="#6E6E6E"/>
<path d="M0.189453 12.5477H3.74223C3.87033 13.7978 4.68361 15.0281 6.86722 15.0281C8.85809 15.0281 9.69252 14.1167 9.69252 13.2053C9.69252 12.294 9.20009 11.6585 7.42429 11.3616L5.45574 11.0439C2.09571 10.4933 0.747696 9.03026 0.747696 6.52893C0.747696 4.02761 3.01593 2.01398 6.67565 2.01398C10.7632 2.01398 12.7752 4.23945 13.0537 6.80479H9.50095C9.28706 5.59661 8.49494 4.57932 6.6545 4.57932C4.92101 4.57932 4.23584 5.46974 4.23584 6.25424C4.23584 7.20751 4.77057 7.65331 6.54755 7.95011L8.34568 8.22597C11.6411 8.75557 13.4604 10.2606 13.4604 12.8887C13.4604 15.7288 11.0417 17.5946 6.9107 17.5946C2.7797 17.5946 0.382194 15.4937 0.189453 12.5477Z" fill="#6E6E6E"/>
<path d="M21.8037 6.65467H25.1015V7.82095C25.6797 6.99454 26.5999 6.33691 28.076 6.33691C29.6379 6.33691 30.6439 7.14237 31.201 8.0968C31.8215 7.18543 33.0203 6.33691 34.668 6.33691C37.0432 6.33691 38.6486 7.71503 38.6486 10.3642V17.2745H35.245L35.2662 10.8519C35.2662 9.64369 34.7738 8.96511 33.5973 8.96511C32.4209 8.96511 31.8427 9.79151 31.8427 11.1277V17.2745H28.6319V10.8519C28.6319 9.64369 28.1395 8.96511 26.9407 8.96511C25.742 8.96511 25.2284 9.83458 25.2284 11.1277V17.2745H21.8037V6.65467Z" fill="#6E6E6E"/>
<path d="M41.2822 2.33057H44.7281V17.2745H41.2822V2.33057Z" fill="#6E6E6E"/>
<path d="M17.2873 7.07369C16.6327 7.07369 16.0392 6.92354 15.5996 6.68027V17.2745H19.0454V6.65466C18.6012 6.91306 17.9654 7.07369 17.2873 7.07369Z" fill="#6E6E6E"/>
<path d="M17.2911 2.01282C18.511 2.01282 19.3032 2.86017 19.3032 3.85651C19.3032 4.85285 18.511 5.76422 17.2911 5.76422C16.0712 5.76422 15.3438 4.89475 15.3438 3.85651C15.3438 2.81827 16.0712 2.01282 17.2911 2.01282Z" fill="#6E6E6E"/>
</svg>
