<svg width="32" height="32" viewBox="0 0 32 32" fill="none" xmlns="http://www.w3.org/2000/svg">
<g id="Icons/exclamation">
<path id="Icon" d="M16 22.6667H16.0134M16 13.3333V18.6667M8.54946 28H23.4506C25.8262 28 27.0139 28 27.7106 27.5004C28.3185 27.0645 28.7154 26.3933 28.8044 25.6506C28.9064 24.7994 28.3339 23.7586 27.1891 21.6772L19.7386 8.13065C18.5196 5.91444 17.9102 4.80634 17.1049 4.43974C16.403 4.12023 15.5971 4.12023 14.8952 4.43974C14.0899 4.80634 13.4804 5.91444 12.2615 8.13064L4.81094 21.6771C3.66612 23.7586 3.09371 24.7994 3.19569 25.6506C3.28469 26.3933 3.68155 27.0645 4.28946 27.5004C4.98614 28 6.17391 28 8.54946 28Z" stroke="#111111" stroke-width="2" stroke-linecap="round" stroke-linejoin="round"/>
</g>
</svg>
