<svg width="33" height="32" viewBox="0 0 33 32" fill="none" xmlns="http://www.w3.org/2000/svg">
<g id="LinkedIn" clip-path="url(#clip0_845_1726)">
<path id="Vector" d="M25.8333 0H7.16667C3.48533 0 0.5 2.98533 0.5 6.66667V25.3333C0.5 29.0147 3.48533 32 7.16667 32H25.8333C29.516 32 32.5 29.0147 32.5 25.3333V6.66667C32.5 2.98533 29.516 0 25.8333 0ZM11.1667 25.3333H7.16667V10.6667H11.1667V25.3333ZM9.16667 8.976C7.87867 8.976 6.83333 7.92267 6.83333 6.624C6.83333 5.32533 7.87867 4.272 9.16667 4.272C10.4547 4.272 11.5 5.32533 11.5 6.624C11.5 7.92267 10.456 8.976 9.16667 8.976ZM27.1667 25.3333H23.1667V17.8613C23.1667 13.3707 17.8333 13.7107 17.8333 17.8613V25.3333H13.8333V10.6667H17.8333V13.02C19.6947 9.572 27.1667 9.31733 27.1667 16.3213V25.3333Z" fill="white"/>
</g>
<defs>
<clipPath id="clip0_845_1726">
<rect width="32" height="32" fill="white" transform="translate(0.5)"/>
</clipPath>
</defs>
</svg>
