<svg width="200" height="120" viewBox="0 0 200 120" fill="none" xmlns="http://www.w3.org/2000/svg">
<path d="M154.946 2.16957C150.954 3.67571 149.622 5.54405 149.622 7.35142C149.539 11.3678 155.442 9.209 155.309 12.9564C155.309 14.6455 154.039 16.5102 151.195 16.5102C148.171 16.5102 144.964 14.1614 144.964 9.58195C144.964 4.15983 149.438 1.20492 154.038 0L154.946 2.16957Z" fill="white"/>
<path d="M167.504 2.16957C163.512 3.67571 162.18 5.54405 162.18 7.35142C162.098 11.3678 168.001 9.209 167.868 12.9564C167.868 14.6455 166.597 16.5102 163.753 16.5102C160.73 16.5102 157.523 14.1614 157.523 9.58195C157.523 4.15983 161.997 1.20492 166.597 0L167.504 2.16957Z" fill="white"/>
<path d="M150.205 20.5445C148.128 20.5445 146.224 20.0497 144.863 19.2536V51.9728H155.417V19.3109C154.067 20.0748 152.232 20.5445 150.205 20.5445Z" fill="white"/>
<path d="M0 37.4098H10.8811C11.2735 41.2612 13.7643 45.0517 20.4521 45.0517C26.5496 45.0517 29.1052 42.2438 29.1052 39.4359C29.1052 36.628 27.597 34.67 22.1582 33.7556L16.1291 32.7766C5.83831 31.0804 1.70974 26.5727 1.70974 18.8663C1.70974 11.1598 8.65668 4.95593 19.8654 4.95593C32.3843 4.95593 38.5465 11.8125 39.3996 19.7162H28.5184C27.8633 15.9938 25.4373 12.8596 19.8006 12.8596C14.4914 12.8596 12.3929 15.6029 12.3929 18.0199C12.3929 20.9569 14.0307 22.3304 19.473 23.2448L24.9802 24.0947C35.0731 25.7264 40.645 30.3632 40.645 38.4605C40.645 47.2105 33.2373 52.9589 20.5853 52.9589C7.93319 52.9589 0.59031 46.4861 0 37.4098Z" fill="white"/>
<path d="M66.1975 19.2536H76.2976V22.8468C78.0685 20.3007 80.8869 18.2746 85.4078 18.2746C90.1914 18.2746 93.2726 20.7561 94.9787 23.6967C96.8792 20.8888 100.551 18.2746 105.597 18.2746C112.872 18.2746 117.788 22.5205 117.788 30.6823V51.9728H107.364L107.429 32.1849C107.429 28.4626 105.921 26.3719 102.318 26.3719C98.7149 26.3719 96.944 28.918 96.944 33.0348V51.9728H87.1103V32.1849C87.1103 28.4626 85.6021 26.3719 81.9307 26.3719C78.2593 26.3719 76.6863 29.0507 76.6863 33.0348V51.9728H66.1975V19.2536Z" fill="white"/>
<path d="M125.855 5.93135H136.408V51.9728H125.855V5.93135Z" fill="white"/>
<path d="M52.3648 20.5445C50.3599 20.5445 48.5422 20.0819 47.196 19.3324V51.9728H57.7496V19.2536C56.389 20.0497 54.4417 20.5445 52.3648 20.5445Z" fill="white"/>
<path d="M52.3756 4.95235C56.1118 4.95235 58.5379 7.563 58.5379 10.6327C58.5379 13.7023 56.1118 16.5102 52.3756 16.5102C48.6394 16.5102 46.4113 13.8314 46.4113 10.6327C46.4113 7.4339 48.6394 4.95235 52.3756 4.95235Z" fill="white"/>
<path d="M181.628 119.947C170.884 119.947 163.255 113.168 163.255 102.872C163.255 92.7041 170.82 85.9893 181.628 85.9893C192.371 85.9893 200 92.7041 200 102.872C200 113.168 192.371 119.947 181.628 119.947ZM173.618 102.872C173.618 108.5 176.733 112.209 181.628 112.209C186.459 112.209 189.638 108.436 189.638 102.872C189.638 97.3725 186.523 93.6634 181.628 93.6634C176.733 93.6634 173.618 97.2446 173.618 102.872Z" fill="white"/>
<path d="M120.214 119.947C111.25 119.947 105.083 113.168 105.083 102.872C105.083 92.9599 111.186 86.1812 120.214 86.1812C125.426 86.1812 128.923 88.4194 130.703 90.5298V73.9027H141.002V118.988H131.084V114.831C129.749 116.686 126.253 119.947 120.214 119.947ZM115.446 102.936C115.382 108.628 118.561 112.209 123.329 112.209C128.033 112.209 131.339 108.692 131.339 102.936C131.339 97.1806 128.096 93.6634 123.392 93.6634C118.561 93.6634 115.446 97.1806 115.446 102.936Z" fill="white"/>
<path d="M80.0377 119.947C72.9812 119.947 67.959 115.918 67.959 106.773V86.9486H78.1941V105.047C78.1941 109.779 80.4191 111.569 83.4705 111.569C86.9034 111.569 89.7006 109.523 89.7006 104.215V86.9486H99.9357V118.988H90.0185V115.087C88.3656 117.325 85.2506 119.947 80.0377 119.947Z" fill="white"/>
<path d="M56.9967 118.988C50.1309 118.988 46.3802 115.279 46.3802 108.372V93.9192H41.4216V86.9486H46.3802V78.7629H56.4881V86.9486H63.0361V93.9192H56.4881V107.796C56.4881 110.354 57.696 111.186 60.0482 111.186H63.0361V118.988H56.9967Z" fill="white"/>
<path d="M19.9616 119.947C7.43793 119.947 0.572148 113.616 0 104.727H10.553C10.9344 108.5 13.3501 112.209 19.8345 112.209C25.7467 112.209 28.226 109.459 28.226 106.709C28.226 103.895 26.7638 102.041 21.4873 101.146L15.6387 100.186C5.65791 98.5236 1.65287 94.111 1.65287 86.5649C1.65287 78.9548 8.39151 72.9434 19.2623 72.9434C31.4046 72.9434 37.3803 79.6582 38.2068 87.3962H27.6538C27.0181 83.751 24.6659 80.6814 19.1987 80.6814C14.0494 80.6814 12.0151 83.3673 12.0151 85.7335C12.0151 88.6113 13.6044 89.9542 18.8809 90.8495L24.2209 91.6809C34.011 93.2796 39.4146 97.8201 39.4146 105.75C39.4146 114.319 32.231 119.947 19.9616 119.947Z" fill="white"/>
<path d="M152.853 88.5718C150.848 88.5718 149.03 88.1092 147.684 87.3597V120H158.237V87.2808C156.877 88.0769 154.929 88.5718 152.853 88.5718Z" fill="white"/>
<path d="M152.863 72.9796C156.599 72.9796 159.025 75.5903 159.025 78.6599C159.025 81.7296 156.599 84.5375 152.863 84.5375C149.127 84.5375 146.899 81.8587 146.899 78.6599C146.899 75.4612 149.127 72.9796 152.863 72.9796Z" fill="white"/>
</svg>